<?xml version="1.0" encoding="utf-8"?>
<!-- Generator: Adobe Illustrator 24.0.1, SVG Export Plug-In . SVG Version: 6.00 Build 0)  -->
<svg version="1.1" id="圖層_1" xmlns="http://www.w3.org/2000/svg" xmlns:xlink="http://www.w3.org/1999/xlink" x="0px" y="0px"
	 viewBox="0 0 100 100" style="enable-background:new 0 0 100 100;" xml:space="preserve">
<style type="text/css">
	.st0{fill:#073994;}
	.st1{fill:#FFFFFF;}
</style>
<g>
	<g>
		<circle class="st0" cx="49.1" cy="50" r="41.2"/>
	</g>
	<g>
		<path class="st0" d="M49.1,98.9c-27,0-49-22-49-48.9c0-12.1,4.5-23.7,12.5-32.7c0.9-1,1.9-2,2.9-2.9c2.1-2,4.4-3.8,6.8-5.3
			C23,8.6,24,8.8,24.4,9.5c0.5,0.7,0.3,1.6-0.4,2.1c-2.3,1.5-4.4,3.2-6.4,5c-0.9,0.9-1.8,1.8-2.7,2.8C7.3,27.7,3.1,38.6,3.1,50
			c0,25.3,20.6,46,46,46c18.5,0,35.1-11,42.3-28.1c0.3-0.8,1.2-1.1,2-0.8s1.1,1.2,0.8,2C86.5,87.2,68.8,98.9,49.1,98.9z"/>
	</g>
	<g>
		<path class="st0" d="M96.6,51.5c-0.8,0-1.5-0.7-1.5-1.5c0-25.3-20.6-46-46-46c-3.9,0-7.8,0.5-11.5,1.5c-0.8,0.2-1.6-0.3-1.8-1.1
			s0.3-1.6,1.1-1.8c4-1,8.1-1.5,12.3-1.5c27,0,49,22,49,48.9C98,50.8,97.4,51.5,96.6,51.5z"/>
	</g>
	<g>
		<path class="st1" d="M49.1,87c-20.4,0-37-16.6-37-37s16.6-37,37-37s36.9,16.6,36.9,37S69.5,87,49.1,87z M49.1,14.2
			c-19.7,0-35.8,16-35.8,35.8s16,35.8,35.8,35.8s35.8-16,35.8-35.8S68.8,14.2,49.1,14.2z"/>
	</g>
	<g>
		<circle class="st0" cx="29" cy="7" r="3.3"/>
	</g>
	<g>
		<circle class="st0" cx="96.6" cy="59.4" r="3.3"/>
	</g>
</g>
</svg>
